<?xml version="1.0" standalone="no"?>
<!DOCTYPE svg PUBLIC "-//W3C//DTD SVG 20010904//EN"
 "http://www.w3.org/TR/2001/REC-SVG-20010904/DTD/svg10.dtd">
<svg version="1.0" xmlns="http://www.w3.org/2000/svg"
 width="256.000000pt" height="256.000000pt" viewBox="0 0 256.000000 256.000000"
 preserveAspectRatio="xMidYMid meet">

<rect width="100%" height="100%" fill="#ffffff"/>
<g transform="translate(0.000000,256.000000) scale(0.100000,-0.100000)"
fill="#a1232b" stroke="none">
<path d="M0 1280 l0 -1280 1280 0 1280 0 0 1280 0 1280 -1280 0 -1280 0 0
-1280z m1126 846 c24 -24 34 -43 34 -65 l0 -31 560 0 560 0 0 -125 0 -125
-559 0 -558 0 -7 -38 c-3 -22 -16 -48 -32 -63 -25 -23 -30 -24 -213 -27 l-188
-3 -32 26 c-21 19 -33 39 -37 66 l-7 39 -183 0 -184 0 0 125 0 125 185 0 185
0 0 31 c0 22 10 41 34 65 l34 34 187 0 187 0 34 -34z m735 -606 c22 -12 49
-61 49 -90 0 -19 5 -20 185 -20 l185 0 0 -130 0 -130 -185 0 c-180 0 -185 -1
-185 -20 0 -29 -27 -78 -49 -90 -26 -13 -386 -13 -412 0 -22 12 -49 61 -49 90
0 20 -2 20 -560 20 l-560 0 0 130 0 130 560 0 c558 0 560 0 560 20 0 28 26 77
47 89 24 14 388 14 414 1z m-735 -644 c24 -24 34 -43 34 -65 l0 -31 560 0 560
0 0 -125 0 -125 -559 0 -558 0 -7 -38 c-3 -22 -16 -48 -32 -63 -25 -23 -30
-24 -213 -27 l-188 -3 -32 26 c-21 19 -33 39 -37 66 l-7 39 -183 0 -184 0 0
125 0 125 185 0 185 0 0 31 c0 22 10 41 34 65 l34 34 187 0 187 0 34 -34z"/>
<path d="M780 1905 l0 -125 125 0 125 0 0 125 0 125 -125 0 -125 0 0 -125z"/>
<path d="M1530 1280 l0 -120 125 0 125 0 0 120 0 120 -125 0 -125 0 0 -120z"/>
<path d="M780 655 l0 -125 125 0 125 0 0 125 0 125 -125 0 -125 0 0 -125z"/>
</g>
</svg>
